# xmcd
# Copyright (C) 1995-1998 Ti Kan
#
# Track frame offsets:
#       150
#       16562
#       30364
#       45271
#       86613
#       109239
#       126340
#       142129
#       166750
#       195365
#       217962
#       243842
#       261525
#       282748
#       299910
#
# Disc length: 4214 seconds
#
# Revision: 1
# Processed by: cddbd v1.5.2PL0 Copyright (c) Steve Scherf et al.
# Submitted via: CD-Transfer v1.0
#
DISCID=d910740f
DTITLE=Spooky Tooth - 
DYEAR=70
DGENRE=
TTITLE0=Waitin' For The Wind
TTITLE1=Feeli' Bad
TTITLE2=I've Got Enough Heartaches
TTITLE3=Evil Woman
TTITLE4=Lost In My Dream
TTITLE5=That Was Only Yesterday
TTITLE6=Better By You, Better Than Me
TTITLE7=Hangman, Hang My Shell On A Tree
TTITLE8=I'm The Walrus
TTITLE9=Wrong Time, The
TTITLE10=Something To Say
TTITLE11=Nobody There At All
TTITLE12=Down River
TTITLE13=Son Of Your Father
TTITLE14=Last Puff, The
EXTD=
EXTT0=
EXTT1=
EXTT2=
EXTT3=
EXTT4=
EXTT5=
EXTT6=
EXTT7=
EXTT8=
EXTT9=
EXTT10=
EXTT11=
EXTT12=
EXTT13=
EXTT14=
PLAYORDER=
